<?xml version="1.0" encoding="UTF-8"?>
<svg id="Layer_1" data-name="Layer 1" xmlns="http://www.w3.org/2000/svg" xmlns:xlink="http://www.w3.org/1999/xlink" viewBox="0 0 170 140">
  <defs>
    <style>
      .cls-1 {
        filter: url(#outer-glow-1);
        stroke: #282973;
        stroke-linecap: round;
        stroke-linejoin: round;
      }

      .cls-1, .cls-2 {
        fill: url(#linear-gradient);
      }

      .cls-3 {
        fill: #fff;
      }

      .cls-4 {
        fill: url(#linear-gradient-2);
        filter: url(#outer-glow-2);
      }

      .cls-5 {
        opacity: .8;
      }

      .cls-6 {
        fill: url(#linear-gradient-3);
      }

      .cls-2 {
        filter: url(#outer-glow-3);
      }

      .cls-7 {
        fill: #282973;
      }
    </style>
    <linearGradient id="linear-gradient" x1="63.23" y1="134.96" x2="115.5" y2="5.59" gradientUnits="userSpaceOnUse">
      <stop offset="0" stop-color="#f1bf24"/>
      <stop offset=".29" stop-color="#f3c22d"/>
      <stop offset=".76" stop-color="#facd46"/>
      <stop offset="1" stop-color="#ffd456"/>
    </linearGradient>
    <filter id="outer-glow-1" x="34" y="-18" width="111" height="176" filterUnits="userSpaceOnUse">
      <feOffset dx="0" dy="0"/>
      <feGaussianBlur result="blur" stdDeviation="10"/>
      <feFlood flood-color="#f6f4b3" flood-opacity="1"/>
      <feComposite in2="blur" operator="in"/>
      <feComposite in="SourceGraphic"/>
    </filter>
    <linearGradient id="linear-gradient-2" x1="63.3" y1="134.72" x2="115.39" y2="5.79" xlink:href="#linear-gradient"/>
    <filter id="outer-glow-2" x="35" y="-17" width="109" height="174" filterUnits="userSpaceOnUse">
      <feOffset dx="0" dy="0"/>
      <feGaussianBlur result="blur-2" stdDeviation="10"/>
      <feFlood flood-color="#f6f4b3" flood-opacity="1"/>
      <feComposite in2="blur-2" operator="in"/>
      <feComposite in="SourceGraphic"/>
    </filter>
    <filter id="outer-glow-3" x="34" y="-19" width="111" height="178" filterUnits="userSpaceOnUse">
      <feOffset dx="0" dy="0"/>
      <feGaussianBlur result="blur-3" stdDeviation="10"/>
      <feFlood flood-color="#f6f4b3" flood-opacity="1"/>
      <feComposite in2="blur-3" operator="in"/>
      <feComposite in="SourceGraphic"/>
    </filter>
    <linearGradient id="linear-gradient-3" x1="63.7" y1="133.75" x2="115.01" y2="6.76" xlink:href="#linear-gradient"/>
  </defs>
  <polygon class="cls-7" points="66.7 126.35 105.24 71.05 89.24 71.01 112.64 13.64 70.35 77.14 88.08 77.14 66.7 126.35"/>
  <polygon class="cls-1" points="65.79 125.96 86.55 78.14 68.48 78.14 111.81 13.08 113.57 14.01 90.73 70.01 107.15 70.06 67.52 126.93 65.79 125.96"/>
  <polygon class="cls-7" points="65.79 125.96 86.55 78.14 68.48 78.14 111.81 13.08 113.57 14.01 90.73 70.01 107.15 70.06 67.52 126.93 65.79 125.96"/>
  <polygon class="cls-4" points="66.7 126.35 105.24 71.05 89.24 71.01 112.64 13.64 70.35 77.14 88.08 77.14 66.7 126.35"/>
  <polygon class="cls-2" points="65.79 125.96 86.55 78.14 68.48 78.14 111.81 13.08 113.57 14.01 90.73 70.01 107.15 70.06 67.52 126.93 65.79 125.96"/>
  <g class="cls-5">
    <path class="cls-7" d="M65.23,124.73l18.59-42.8c.57-1.32-.39-2.79-1.83-2.79h-11.64c-1.59,0-2.55-1.78-1.66-3.1L110.48,13.28c.57-.85,1.69-1.14,2.6-.66l.16.09c.91.48,1.3,1.57.91,2.52l-20.82,51.05c-.53,1.31.43,2.75,1.84,2.75l10.08.03c1.61,0,2.55,1.82,1.63,3.14l-38.03,54.56c-.59.84-1.72,1.1-2.61.6l-.16-.09c-.9-.5-1.27-1.6-.86-2.54Z"/>
  </g>
  <path class="cls-6" d="M67.29,125.53l37.85-54.31c.05-.07,0-.16-.08-.16l-15.66-.05c-.07,0-.12-.07-.09-.14l22.96-56.3c.05-.11-.11-.2-.18-.09l-41.62,62.5c-.04.07,0,.16.08.16h17.38c.07,0,.12.07.09.14l-20.91,48.14c-.05.11.11.2.18.1Z"/>
  <g class="cls-5">
    <path class="cls-3" d="M28.7,82.37c-.55,0-1-.45-1-1v-25.29c0-.55.45-1,1-1h9.1c8.88,0,10.75,4.93,10.75,9.06,0,2.84-1.06,5.17-3.15,6.93-2.04,1.72-4.77,2.59-8.12,2.59h-1.77v7.71c0,.55-.45,1-1,1h-5.81ZM36.79,67.33c3.21,0,3.64-1.51,3.64-2.99s-.43-2.9-3.64-2.9h-1.28v5.88h1.28Z"/>
    <path class="cls-3" d="M34.51,72.65v8.71h-5.81v-25.29h9.1c6.5,0,9.75,2.69,9.75,8.06,0,2.54-.93,4.59-2.8,6.16-1.86,1.57-4.36,2.35-7.47,2.35h-2.77ZM34.51,60.45v7.88h2.28c3.09,0,4.64-1.33,4.64-3.99s-1.55-3.9-4.64-3.9h-2.28Z"/>
    <path class="cls-3" d="M55.61,82.37c-.55,0-1-.45-1-1v-25.29c0-.55.45-1,1-1h5.81c.55,0,1,.45,1,1v19.67h8.55c.55,0,1,.45,1,1v4.62c0,.55-.45,1-1,1h-15.36Z"/>
    <path class="cls-3" d="M70.97,81.36h-15.36v-25.29h5.81v20.67h9.55v4.62Z"/>
    <path class="cls-3" d="M93.86,82.37c-.35,0-.67-.18-.85-.48l-4.01-6.51c-.29-.48-.56-.9-.83-1.27-.24-.34-.48-.63-.72-.86-.2-.2-.41-.35-.61-.45-.17-.08-.36-.12-.56-.12h-.56v8.68c0,.55-.45,1-1,1h-5.81c-.55,0-1-.45-1-1v-25.29c0-.55.45-1,1-1h9.21c8.58,0,10.39,4.28,10.39,7.88,0,1-.16,1.94-.47,2.79-.32.85-.77,1.63-1.34,2.32-.57.68-1.27,1.27-2.07,1.76-.23.14-.47.27-.71.39.24.2.47.42.69.66.36.38.71.8,1.04,1.23.32.42.61.84.88,1.25l4.87,7.48c.2.31.22.7.04,1.02s-.51.52-.88.52h-6.67ZM87.23,66.38c.99,0,1.75-.26,2.32-.79.56-.52.83-1.16.83-1.93,0-1.15-.36-2.32-3.05-2.32h-1.63v5.04h1.52Z"/>
    <path class="cls-3" d="M100.53,81.36h-6.67l-4.01-6.51c-.3-.49-.59-.94-.86-1.32-.28-.39-.55-.72-.84-1-.28-.28-.58-.49-.88-.63s-.64-.22-1-.22h-1.56v9.68h-5.81v-25.29h9.21c6.26,0,9.39,2.29,9.39,6.88,0,.88-.14,1.7-.41,2.44-.28.75-.67,1.42-1.17,2.02-.5.6-1.11,1.12-1.83,1.55-.71.44-1.51.78-2.38,1.02v.07c.38.12.75.31,1.12.57.36.26.71.57,1.04.93.33.35.66.73.96,1.14.31.41.58.8.84,1.19l4.87,7.48ZM84.71,60.34v7.04h2.52c1.25,0,2.25-.35,3-1.06.77-.72,1.15-1.6,1.15-2.66,0-2.21-1.35-3.32-4.05-3.32h-2.63Z"/>
    <path class="cls-3" d="M107.95,82.37c-.55,0-1-.45-1-1v-25.29c0-.55.45-1,1-1h14.87c.55,0,1,.45,1,1v4.64c0,.55-.45,1-1,1h-8.06v3.63h7.43c.55,0,1,.45,1,1v4.62c0,.55-.45,1-1,1h-7.43v3.79h8.66c.55,0,1,.45,1,1v4.62c0,.55-.45,1-1,1h-15.46Z"/>
    <path class="cls-3" d="M123.42,81.36h-15.46v-25.29h14.87v4.64h-9.06v5.63h8.43v4.62h-8.43v5.79h9.66v4.62Z"/>
    <path class="cls-3" d="M131.18,82.37c-.55,0-1-.45-1-1v-4.41c0-.55.45-1,1-1h1.16v-14.48h-1.16c-.55,0-1-.45-1-1v-4.41c0-.55.45-1,1-1h10.12c.55,0,1,.45,1,1v4.41c0,.55-.45,1-1,1h-1.16v14.48h1.16c.55,0,1,.45,1,1v4.41c0,.55-.45,1-1,1h-10.12Z"/>
    <path class="cls-3" d="M141.3,56.07v4.41h-2.16v16.48h2.16v4.41h-10.12v-4.41h2.16v-16.48h-2.16v-4.41h10.12Z"/>
  </g>
  <g>
    <path class="cls-7" d="M34.51,72.65v8.71h-5.81v-25.29h9.1c6.5,0,9.75,2.69,9.75,8.06,0,2.54-.93,4.59-2.8,6.16-1.86,1.57-4.36,2.35-7.47,2.35h-2.77ZM34.51,60.45v7.88h2.28c3.09,0,4.64-1.33,4.64-3.99s-1.55-3.9-4.64-3.9h-2.28Z"/>
    <path class="cls-7" d="M70.97,81.36h-15.36v-25.29h5.81v20.67h9.55v4.62Z"/>
    <path class="cls-7" d="M100.53,81.36h-6.67l-4.01-6.51c-.3-.49-.59-.94-.86-1.32-.28-.39-.55-.72-.84-1-.28-.28-.58-.49-.88-.63s-.64-.22-1-.22h-1.56v9.68h-5.81v-25.29h9.21c6.26,0,9.39,2.29,9.39,6.88,0,.88-.14,1.7-.41,2.44-.28.75-.67,1.42-1.17,2.02-.5.6-1.11,1.12-1.83,1.55-.71.44-1.51.78-2.38,1.02v.07c.38.12.75.31,1.12.57.36.26.71.57,1.04.93.33.35.66.73.96,1.14.31.41.58.8.84,1.19l4.87,7.48ZM84.71,60.34v7.04h2.52c1.25,0,2.25-.35,3-1.06.77-.72,1.15-1.6,1.15-2.66,0-2.21-1.35-3.32-4.05-3.32h-2.63Z"/>
    <path class="cls-7" d="M123.42,81.36h-15.46v-25.29h14.87v4.64h-9.06v5.63h8.43v4.62h-8.43v5.79h9.66v4.62Z"/>
    <path class="cls-7" d="M141.3,56.07v4.41h-2.16v16.48h2.16v4.41h-10.12v-4.41h2.16v-16.48h-2.16v-4.41h10.12Z"/>
  </g>
</svg>