<?xml version="1.0" encoding="UTF-8"?>
<svg id="Layer_1" data-name="Layer 1" xmlns="http://www.w3.org/2000/svg" xmlns:xlink="http://www.w3.org/1999/xlink" viewBox="0 0 170 140">
  <defs>
    <style>
      .cls-1 {
        fill: url(#linear-gradient-2);
      }

      .cls-2 {
        fill: #fff;
      }

      .cls-3 {
        fill: url(#linear-gradient-4);
      }

      .cls-4 {
        opacity: .8;
      }

      .cls-5 {
        fill: url(#linear-gradient-3);
      }

      .cls-6 {
        fill: #010101;
      }

      .cls-7 {
        fill: url(#linear-gradient);
      }
    </style>
    <linearGradient id="linear-gradient" x1="63.01" y1="135.49" x2="115.71" y2="5.06" gradientUnits="userSpaceOnUse">
      <stop offset="0" stop-color="#f1bf24"/>
      <stop offset=".29" stop-color="#f3c22d"/>
      <stop offset=".76" stop-color="#facd46"/>
      <stop offset="1" stop-color="#ffd456"/>
    </linearGradient>
    <linearGradient id="linear-gradient-2" x1="63.3" y1="134.72" x2="115.39" y2="5.79" xlink:href="#linear-gradient"/>
    <linearGradient id="linear-gradient-3" x1="63.23" y1="134.96" x2="115.5" y2="5.59" xlink:href="#linear-gradient"/>
    <linearGradient id="linear-gradient-4" x1="63.7" y1="133.75" x2="115.01" y2="6.76" xlink:href="#linear-gradient"/>
  </defs>
  <polygon class="cls-6" points="66.7 126.35 105.24 71.05 89.24 71.01 112.64 13.64 70.35 77.14 88.08 77.14 66.7 126.35"/>
  <g>
    <path class="cls-7" d="M67.52,127.43c-.08,0-.17-.02-.24-.06l-1.74-.97c-.22-.12-.32-.4-.21-.64l20.46-47.12h-17.3c-.18,0-.35-.1-.44-.26-.09-.16-.08-.36.02-.51L111.39,12.8c.1-.14.25-.22.42-.22.08,0,.16.02.23.06l1.76.93c.23.12.33.39.23.63l-22.56,55.31,15.68.05c.19,0,.36.1.44.27s.07.36-.03.52l-39.63,56.87c-.1.14-.25.21-.41.21Z"/>
    <path class="cls-6" d="M111.81,13.08l1.76.93-22.84,56,16.43.05-39.63,56.87-1.74-.97,20.77-47.82h-18.07L111.81,13.08M111.81,12.08c-.32,0-.64.16-.83.45l-43.32,65.05c-.2.31-.22.7-.05,1.03.17.33.51.53.88.53h16.54l-20.16,46.42c-.2.47-.02,1.02.43,1.27l1.74.97c.15.09.32.13.49.13.32,0,.63-.15.82-.43l39.63-56.87c.21-.31.24-.7.07-1.03-.17-.33-.51-.54-.88-.54l-14.94-.05,22.28-54.62c.19-.48,0-1.02-.46-1.26l-1.76-.93c-.15-.08-.31-.12-.47-.12h0Z"/>
  </g>
  <polygon class="cls-6" points="65.79 125.96 86.55 78.14 68.48 78.14 111.81 13.08 113.57 14.01 90.73 70.01 107.15 70.06 67.52 126.93 65.79 125.96"/>
  <polygon class="cls-1" points="66.7 126.35 105.24 71.05 89.24 71.01 112.64 13.64 70.35 77.14 88.08 77.14 66.7 126.35"/>
  <polygon class="cls-5" points="65.79 125.96 86.55 78.14 68.48 78.14 111.81 13.08 113.57 14.01 90.73 70.01 107.15 70.06 67.52 126.93 65.79 125.96"/>
  <g class="cls-4">
    <path class="cls-6" d="M65.23,124.73l18.59-42.8c.57-1.32-.39-2.79-1.83-2.79h-11.64c-1.59,0-2.55-1.78-1.66-3.1L110.48,13.28c.57-.85,1.69-1.14,2.6-.66l.16.09c.91.48,1.3,1.57.91,2.52l-20.82,51.05c-.53,1.31.43,2.75,1.84,2.75l10.08.03c1.61,0,2.55,1.82,1.63,3.14l-38.03,54.56c-.59.84-1.72,1.1-2.61.6l-.16-.09c-.9-.5-1.27-1.6-.86-2.54Z"/>
  </g>
  <path class="cls-3" d="M67.29,125.53l37.85-54.31c.05-.07,0-.16-.08-.16l-15.66-.05c-.07,0-.12-.07-.09-.14l22.96-56.3c.05-.11-.11-.2-.18-.09l-41.62,62.5c-.04.07,0,.16.08.16h17.38c.07,0,.12.07.09.14l-20.91,48.14c-.05.11.11.2.18.1Z"/>
  <g>
    <g>
      <g class="cls-4">
        <path class="cls-6" d="M28.7,82.37c-.55,0-1-.45-1-1v-25.29c0-.55.45-1,1-1h9.1c8.88,0,10.75,4.93,10.75,9.06,0,2.84-1.06,5.17-3.15,6.93-2.04,1.72-4.77,2.59-8.12,2.59h-1.77v7.71c0,.55-.45,1-1,1h-5.81ZM36.79,67.33c3.21,0,3.64-1.51,3.64-2.99s-.43-2.9-3.64-2.9h-1.28v5.88h1.28Z"/>
        <path class="cls-6" d="M34.51,72.65v8.71h-5.81v-25.29h9.1c6.5,0,9.75,2.69,9.75,8.06,0,2.54-.93,4.59-2.8,6.16-1.86,1.57-4.36,2.35-7.47,2.35h-2.77ZM34.51,60.45v7.88h2.28c3.09,0,4.64-1.33,4.64-3.99s-1.55-3.9-4.64-3.9h-2.28Z"/>
        <path class="cls-6" d="M55.61,82.37c-.55,0-1-.45-1-1v-25.29c0-.55.45-1,1-1h5.81c.55,0,1,.45,1,1v19.67h8.55c.55,0,1,.45,1,1v4.62c0,.55-.45,1-1,1h-15.36Z"/>
        <path class="cls-6" d="M70.97,81.36h-15.36v-25.29h5.81v20.67h9.55v4.62Z"/>
        <path class="cls-6" d="M93.86,82.37c-.35,0-.67-.18-.85-.48l-4.01-6.51c-.29-.48-.56-.9-.83-1.27-.24-.34-.48-.63-.72-.86-.2-.2-.41-.35-.61-.45-.17-.08-.36-.12-.56-.12h-.56v8.68c0,.55-.45,1-1,1h-5.81c-.55,0-1-.45-1-1v-25.29c0-.55.45-1,1-1h9.21c8.58,0,10.39,4.28,10.39,7.88,0,1-.16,1.94-.47,2.79-.32.85-.77,1.63-1.34,2.32-.57.68-1.27,1.27-2.07,1.76-.23.14-.47.27-.71.39.24.2.47.42.69.66.36.38.71.8,1.04,1.23.32.42.61.84.88,1.25l4.87,7.48c.2.31.22.7.04,1.02s-.51.52-.88.52h-6.67ZM87.23,66.38c.99,0,1.75-.26,2.32-.79.56-.52.83-1.16.83-1.93,0-1.15-.36-2.32-3.05-2.32h-1.63v5.04h1.52Z"/>
        <path class="cls-6" d="M100.53,81.36h-6.67l-4.01-6.51c-.3-.49-.59-.94-.86-1.32-.28-.39-.55-.72-.84-1-.28-.28-.58-.49-.88-.63s-.64-.22-1-.22h-1.56v9.68h-5.81v-25.29h9.21c6.26,0,9.39,2.29,9.39,6.88,0,.88-.14,1.7-.41,2.44-.28.75-.67,1.42-1.17,2.02-.5.6-1.11,1.12-1.83,1.55-.71.44-1.51.78-2.38,1.02v.07c.38.12.75.31,1.12.57.36.26.71.57,1.04.93.33.35.66.73.96,1.14.31.41.58.8.84,1.19l4.87,7.48ZM84.71,60.34v7.04h2.52c1.25,0,2.25-.35,3-1.06.77-.72,1.15-1.6,1.15-2.66,0-2.21-1.35-3.32-4.05-3.32h-2.63Z"/>
        <path class="cls-6" d="M107.95,82.37c-.55,0-1-.45-1-1v-25.29c0-.55.45-1,1-1h14.87c.55,0,1,.45,1,1v4.64c0,.55-.45,1-1,1h-8.06v3.63h7.43c.55,0,1,.45,1,1v4.62c0,.55-.45,1-1,1h-7.43v3.79h8.66c.55,0,1,.45,1,1v4.62c0,.55-.45,1-1,1h-15.46Z"/>
        <path class="cls-6" d="M123.42,81.36h-15.46v-25.29h14.87v4.64h-9.06v5.63h8.43v4.62h-8.43v5.79h9.66v4.62Z"/>
        <path class="cls-6" d="M131.18,82.37c-.55,0-1-.45-1-1v-4.41c0-.55.45-1,1-1h1.16v-14.48h-1.16c-.55,0-1-.45-1-1v-4.41c0-.55.45-1,1-1h10.12c.55,0,1,.45,1,1v4.41c0,.55-.45,1-1,1h-1.16v14.48h1.16c.55,0,1,.45,1,1v4.41c0,.55-.45,1-1,1h-10.12Z"/>
        <path class="cls-6" d="M141.3,56.07v4.41h-2.16v16.48h2.16v4.41h-10.12v-4.41h2.16v-16.48h-2.16v-4.41h10.12Z"/>
      </g>
      <g>
        <path class="cls-2" d="M34.51,72.65v8.71h-5.81v-25.29h9.1c6.5,0,9.75,2.69,9.75,8.06,0,2.54-.93,4.59-2.8,6.16-1.86,1.57-4.36,2.35-7.47,2.35h-2.77ZM34.51,60.45v7.88h2.28c3.09,0,4.64-1.33,4.64-3.99s-1.55-3.9-4.64-3.9h-2.28Z"/>
        <path class="cls-2" d="M70.97,81.36h-15.36v-25.29h5.81v20.67h9.55v4.62Z"/>
        <path class="cls-2" d="M100.53,81.36h-6.67l-4.01-6.51c-.3-.49-.59-.94-.86-1.32-.28-.39-.55-.72-.84-1-.28-.28-.58-.49-.88-.63s-.64-.22-1-.22h-1.56v9.68h-5.81v-25.29h9.21c6.26,0,9.39,2.29,9.39,6.88,0,.88-.14,1.7-.41,2.44-.28.75-.67,1.42-1.17,2.02-.5.6-1.11,1.12-1.83,1.55-.71.44-1.51.78-2.38,1.02v.07c.38.12.75.31,1.12.57.36.26.71.57,1.04.93.33.35.66.73.96,1.14.31.41.58.8.84,1.19l4.87,7.48ZM84.71,60.34v7.04h2.52c1.25,0,2.25-.35,3-1.06.77-.72,1.15-1.6,1.15-2.66,0-2.21-1.35-3.32-4.05-3.32h-2.63Z"/>
        <path class="cls-2" d="M123.42,81.36h-15.46v-25.29h14.87v4.64h-9.06v5.63h8.43v4.62h-8.43v5.79h9.66v4.62Z"/>
        <path class="cls-2" d="M141.3,56.07v4.41h-2.16v16.48h2.16v4.41h-10.12v-4.41h2.16v-16.48h-2.16v-4.41h10.12Z"/>
      </g>
    </g>
    <g>
      <g class="cls-4">
        <g>
          <path class="cls-6" d="M18.16,98.01c-.55,0-1-.45-1-1v-9.38c0-.55.45-1,1-1h2.44c2.3,0,3.61,1.45,3.61,3.99,0,1.18-.33,2.17-.99,2.94-.63.74-1.5,1.15-2.51,1.21v2.24c0,.55-.45,1-1,1h-1.56Z"/>
          <path class="cls-6" d="M19.72,93.78v3.23h-1.56v-9.38h2.44c1.74,0,2.61,1,2.61,2.99,0,.94-.25,1.7-.75,2.29s-1.17.87-2,.87h-.74ZM19.72,89.26v2.92h.61c.83,0,1.24-.49,1.24-1.48s-.41-1.44-1.24-1.44h-.61Z"/>
          <path class="cls-6" d="M26.43,98.17c-1.13,0-2.08-.46-2.74-1.34-.6-.8-.91-1.86-.91-3.15s.32-2.41.95-3.21c.67-.86,1.63-1.32,2.77-1.32s2.08.46,2.73,1.34c.6.8.9,1.83.9,3.08,0,1.33-.31,2.41-.92,3.23-.67.9-1.63,1.37-2.78,1.37ZM26.46,92.75c-.03.11-.13.36-.13.91,0,.59.1.84.14.92.01-.09.1-.35.1-.97,0-.52-.07-.76-.12-.86Z"/>
          <path class="cls-6" d="M26.43,97.17c-.82,0-1.47-.31-1.94-.94-.47-.63-.71-1.47-.71-2.55s.24-1.97.73-2.6c.49-.63,1.15-.94,1.98-.94s1.46.31,1.93.94c.47.62.7,1.45.7,2.48,0,1.11-.24,1.99-.72,2.64-.48.64-1.14.97-1.98.97ZM26.47,91.73c-.36,0-.64.17-.84.5-.2.33-.3.81-.3,1.42,0,1.29.38,1.93,1.15,1.93s1.1-.66,1.1-1.98c0-1.25-.37-1.88-1.1-1.88Z"/>
          <path class="cls-6" d="M34.26,98.01c-.36,0-.68-.19-.86-.49-.18.3-.5.49-.86.49h-1.58c-.47,0-.88-.33-.98-.8l-1.39-6.7c-.06-.29.01-.6.2-.83.19-.23.47-.37.78-.37h1.55c.36,0,.68.19.86.49.18-.3.5-.49.86-.49h1.45c.32,0,.61.15.79.39.18-.24.47-.39.79-.39h1.41c.3,0,.59.14.78.37.19.23.26.54.2.84l-1.42,6.7c-.1.46-.51.79-.98.79h-1.6Z"/>
          <path class="cls-6" d="M37.28,90.31l-1.42,6.7h-1.6l-.73-3.92c-.05-.26-.08-.55-.08-.86h-.03c-.02.34-.05.62-.1.83l-.78,3.95h-1.58l-1.39-6.7h1.55l.68,4.37c.03.2.06.45.07.75h.03c.02-.31.04-.56.09-.77l.85-4.34h1.45l.76,4.37c.02.11.04.36.07.76h.03c.02-.25.04-.51.08-.76l.64-4.37h1.41Z"/>
          <path class="cls-6" d="M40.24,98.17c-1.11,0-2.04-.45-2.66-1.31-.57-.77-.86-1.81-.86-3.1s.31-2.41.91-3.23c.84-1.14,1.86-1.38,2.56-1.38,1.05,0,1.92.45,2.5,1.31.51.75.76,1.73.76,2.92v.87c0,.34-.17.65-.44.83,0,.04,0,.07,0,.11v1.49c0,.32-.15.62-.41.81-.63.46-1.42.69-2.37.69Z"/>
          <path class="cls-6" d="M42.46,94.25h-3.22c.05.97.5,1.46,1.36,1.46.54,0,1.02-.17,1.43-.52v1.49c-.46.33-1.05.5-1.78.5-.8,0-1.42-.3-1.86-.9-.44-.6-.66-1.44-.66-2.51s.24-1.99.71-2.64c.48-.65,1.06-.97,1.76-.97s1.28.29,1.67.87c.39.58.59,1.37.59,2.36v.87ZM41.04,92.98c0-.96-.29-1.44-.86-1.44-.24,0-.46.14-.63.41-.18.27-.29.62-.33,1.03h1.82Z"/>
          <path class="cls-6" d="M43.54,98.01c-.55,0-1-.45-1-1v-6.7c0-.55.45-1,1-1h1.52c.15,0,.28.03.41.09.34-.16.66-.2.92-.2.34,0,.63.07.88.21.31.18.5.51.5.87v1.9c0,.38-.21.72-.55.89-.14.07-.3.11-.45.11-.2,0-.4-.06-.56-.17-.07.15-.13.39-.13.81v3.2c0,.55-.45,1-1,1h-1.52Z"/>
          <path class="cls-6" d="M46.76,92.18c-.18-.13-.4-.2-.64-.2-.33,0-.59.16-.78.49s-.28.78-.28,1.34v3.2h-1.52v-6.7h1.52v1.24h.02c.24-.91.68-1.36,1.3-1.36.16,0,.29.03.38.08v1.9Z"/>
          <path class="cls-6" d="M50.4,98.01c-.55,0-1-.45-1-1v-9.38c0-.55.45-1,1-1h1.56c.55,0,1,.45,1,1v6.66h1.56c.55,0,1,.45,1,1v1.71c0,.55-.45,1-1,1h-4.12Z"/>
          <path class="cls-6" d="M54.52,97.01h-4.12v-9.38h1.56v7.66h2.56v1.71Z"/>
          <path class="cls-6" d="M55.39,98.01c-.55,0-1-.45-1-1v-6.7c0-.3.13-.57.35-.76-.3-.38-.45-.85-.45-1.37s.17-1.03.48-1.4c.35-.42.85-.65,1.4-.65s1.06.23,1.41.66c.31.38.47.85.47,1.4s-.15,1.01-.46,1.39c.2.18.33.45.33.74v6.7c0,.55-.45,1-1,1h-1.52Z"/>
          <path class="cls-6" d="M56.16,89.26c-.26,0-.47-.1-.63-.31s-.25-.46-.25-.76.08-.56.25-.76.38-.29.63-.29.47.1.63.29.24.45.24.76-.08.57-.24.77-.37.3-.63.3ZM56.91,97.01h-1.52v-6.7h1.52v6.7Z"/>
          <path class="cls-6" d="M61.54,98.01c-.37,0-.69-.2-.86-.5-.17.3-.5.5-.86.5h-1.52c-.55,0-1-.45-1-1v-6.7c0-.55.45-1,1-1h1.52c.17,0,.32.04.46.11.43-.22.85-.27,1.15-.27.99,0,2.64.49,2.64,3.76v4.1c0,.55-.45,1-1,1h-1.52Z"/>
          <path class="cls-6" d="M63.06,97.01h-1.52v-3.72c0-1.04-.27-1.56-.82-1.56-.26,0-.48.14-.65.41-.17.27-.26.62-.26,1.05v3.82h-1.52v-6.7h1.52v1.06h.02c.36-.82.89-1.22,1.59-1.22,1.09,0,1.64.92,1.64,2.76v4.1Z"/>
          <path class="cls-6" d="M66.63,98.17c-1.11,0-2.03-.45-2.66-1.31-.57-.77-.85-1.82-.85-3.1s.31-2.41.91-3.23c.84-1.14,1.86-1.38,2.56-1.38,1.05,0,1.92.45,2.5,1.31.51.75.76,1.73.76,2.92v.87c0,.34-.17.65-.44.83,0,.04,0,.07,0,.11v1.49c0,.32-.15.62-.41.81-.63.46-1.42.69-2.37.69Z"/>
          <path class="cls-6" d="M68.84,94.25h-3.22c.05.97.5,1.46,1.36,1.46.54,0,1.02-.17,1.43-.52v1.49c-.46.33-1.05.5-1.78.5-.8,0-1.42-.3-1.86-.9-.44-.6-.66-1.44-.66-2.51s.24-1.99.71-2.64c.48-.65,1.06-.97,1.76-.97s1.28.29,1.67.87c.39.58.59,1.37.59,2.36v.87ZM67.43,92.98c0-.96-.29-1.44-.86-1.44-.24,0-.46.14-.63.41-.18.27-.29.62-.33,1.03h1.82Z"/>
          <path class="cls-6" d="M76.7,98.01c-.39,0-.75-.23-.91-.59l-.54-1.22v.81c0,.55-.45,1-1,1h-1.56c-.55,0-1-.45-1-1v-9.38c0-.55.45-1,1-1h2.47c2.24,0,3.52,1.29,3.52,3.55,0,.41-.05.8-.15,1.17-.1.37-.24.71-.43,1.01-.13.22-.29.43-.47.61.07.11.14.23.21.35.09.17.17.33.25.5l1.31,2.77c.15.31.12.67-.06.96-.18.29-.5.46-.84.46h-1.79Z"/>
          <path class="cls-6" d="M78.49,97.01h-1.79l-1.08-2.41c-.08-.18-.16-.35-.23-.49-.07-.14-.15-.27-.22-.37-.08-.1-.15-.18-.24-.24s-.17-.08-.27-.08h-.42v3.59h-1.56v-9.38h2.47c1.68,0,2.52.85,2.52,2.55,0,.33-.04.63-.11.91-.07.28-.18.53-.31.75-.13.22-.3.41-.49.58-.19.16-.4.29-.64.38v.03c.1.04.2.11.3.21.1.1.19.21.28.34.09.13.18.27.26.42s.16.3.22.44l1.31,2.77ZM74.24,89.22v2.61h.67c.33,0,.6-.13.81-.39.21-.27.31-.59.31-.99,0-.82-.36-1.23-1.09-1.23h-.7Z"/>
          <path class="cls-6" d="M81.21,98.17c-1.11,0-2.03-.45-2.66-1.31-.57-.77-.85-1.82-.85-3.1s.31-2.41.91-3.23c.84-1.14,1.86-1.38,2.56-1.38,1.05,0,1.92.45,2.5,1.31.51.75.76,1.73.76,2.92v.87c0,.34-.17.65-.44.83,0,.04,0,.07,0,.11v1.49c0,.32-.15.62-.41.81-.63.46-1.42.69-2.37.69Z"/>
          <path class="cls-6" d="M83.42,94.25h-3.22c.05.97.5,1.46,1.36,1.46.54,0,1.02-.17,1.43-.52v1.49c-.46.33-1.05.5-1.78.5-.8,0-1.42-.3-1.86-.9-.44-.6-.66-1.44-.66-2.51s.24-1.99.71-2.64c.48-.65,1.06-.97,1.76-.97s1.28.29,1.67.87c.39.58.59,1.37.59,2.36v.87ZM82.01,92.98c0-.96-.29-1.44-.86-1.44-.24,0-.46.14-.63.41-.18.27-.29.62-.33,1.03h1.82Z"/>
          <path class="cls-6" d="M87.76,98.01c-.37,0-.69-.2-.86-.5-.17.3-.5.5-.86.5h-1.52c-.55,0-1-.45-1-1v-6.7c0-.55.45-1,1-1h1.52c.17,0,.32.04.46.11.43-.22.85-.27,1.15-.27.99,0,2.64.49,2.64,3.76v4.1c0,.55-.45,1-1,1h-1.52Z"/>
          <path class="cls-6" d="M89.27,97.01h-1.52v-3.72c0-1.04-.27-1.56-.82-1.56-.26,0-.48.14-.65.41-.17.27-.26.62-.26,1.05v3.82h-1.52v-6.7h1.52v1.06h.02c.36-.82.89-1.22,1.59-1.22,1.09,0,1.64.92,1.64,2.76v4.1Z"/>
          <path class="cls-6" d="M92.51,98.17c-.79,0-2.61-.32-2.61-3.27v-2.09c-.46-.09-.8-.5-.8-.98v-1.52c0-.48.34-.89.8-.98v-.46c0-.41.25-.78.64-.93l1.52-.59c.12-.04.24-.07.36-.07.2,0,.4.06.57.17.27.19.43.5.43.83v1.03h.11c.55,0,1,.45,1,1v1.52c0,.55-.45,1-1,1h-.11v1.58s.07,0,.1,0c.15,0,.3.03.44.1.34.17.56.51.56.89v1.53c0,.32-.16.63-.42.81-.4.29-.93.43-1.6.43Z"/>
          <path class="cls-6" d="M93.53,96.93c-.23.16-.56.24-1.02.24-1.07,0-1.61-.76-1.61-2.27v-3.07h-.8v-1.52h.8v-1.44l1.52-.59v2.03h1.11v1.52h-1.11v2.71c0,.7.2,1.05.61,1.05.16,0,.33-.06.5-.19v1.53Z"/>
          <rect class="cls-6" x="93.21" y="91.71" width="4.64" height="3.45" rx="1" ry="1"/>
          <path class="cls-6" d="M96.85,94.16h-2.64v-1.45h2.64v1.45Z"/>
          <path class="cls-6" d="M98.35,98.01c-.55,0-1-.45-1-1v-9.38c0-.55.45-1,1-1h3.99c.55,0,1,.45,1,1v1.72c0,.55-.45,1-1,1h-1.43v.09h1.26c.55,0,1,.45,1,1v1.71c0,.55-.45,1-1,1h-1.26v.14h1.59c.55,0,1,.45,1,1v1.71c0,.55-.45,1-1,1h-4.15Z"/>
          <path class="cls-6" d="M102.5,97.01h-4.15v-9.38h3.99v1.72h-2.43v2.09h2.26v1.71h-2.26v2.14h2.59v1.71Z"/>
          <rect class="cls-6" x="102.5" y="91.71" width="4.64" height="3.45" rx="1" ry="1"/>
          <path class="cls-6" d="M106.14,94.16h-2.64v-1.45h2.64v1.45Z"/>
          <path class="cls-6" d="M113.54,100.84c-.48,0-.92-.11-1.33-.32-.36-.19-.69-.44-1.01-.75-.28-.28-.56-.61-.82-.99-.15-.22-.31-.45-.47-.69-.45-.08-.87-.25-1.25-.5-.5-.33-.94-.76-1.29-1.3-.33-.51-.59-1.1-.76-1.77-.17-.65-.26-1.35-.26-2.08,0-1.69.38-3.09,1.12-4.17.82-1.18,1.98-1.8,3.35-1.8,1.31,0,2.41.61,3.21,1.75.72,1.04,1.09,2.39,1.09,4.03,0,1.26-.22,2.37-.65,3.31-.26.56-.58,1.03-.97,1.41.04.02.08.03.12.04.09.02.2.03.31.03l.35.96-.24-.97s.1-.03.1-.03c.15-.08.32-.12.48-.12.18,0,.35.05.51.14.3.18.49.51.49.86v1.78c0,.42-.26.79-.64.93-.14.05-.33.11-.57.16-.25.05-.54.08-.87.08ZM110.77,90.3c-.09,0-.24,0-.44.34-.23.4-.35.97-.35,1.7s.11,1.31.34,1.7c.19.31.32.31.41.31.1,0,.24,0,.42-.3.22-.36.33-.95.33-1.68,0-.77-.11-1.39-.33-1.77-.17-.31-.29-.31-.39-.31Z"/>
          <path class="cls-6" d="M112.01,96.83c.17.24.33.44.48.6.15.16.3.28.46.37.15.09.31.15.47.19s.34.05.53.05c.05,0,.11,0,.17-.01.06,0,.12-.02.19-.03.06-.02.12-.03.18-.05.06-.02.11-.04.16-.07v1.78c-.1.04-.25.08-.43.12s-.4.06-.66.06c-.32,0-.61-.07-.87-.21-.27-.14-.52-.33-.76-.57-.24-.24-.48-.53-.71-.85-.23-.33-.47-.68-.72-1.05-.47-.02-.9-.15-1.29-.4-.39-.25-.72-.58-.99-1-.27-.42-.49-.91-.63-1.48s-.22-1.17-.22-1.82c0-1.49.31-2.68.95-3.6.63-.92,1.48-1.37,2.53-1.37.98,0,1.78.44,2.38,1.32.61.87.92,2.02.92,3.46,0,1.12-.19,2.08-.56,2.89-.37.8-.89,1.36-1.56,1.69ZM110.77,89.3c-.54,0-.98.28-1.3.84-.32.55-.48,1.29-.48,2.2s.16,1.66.48,2.2c.32.54.75.81,1.27.81s.97-.26,1.28-.78c.31-.53.47-1.26.47-2.19s-.15-1.71-.45-2.26c-.3-.55-.72-.82-1.26-.82Z"/>
          <path class="cls-6" d="M116.89,98.17c-1.01,0-2.72-.5-2.72-3.82v-4.04c0-.55.45-1,1-1h1.52c.37,0,.69.2.87.5.17-.3.5-.5.87-.5h1.52c.55,0,1,.45,1,1v6.7c0,.55-.45,1-1,1h-1.52c-.16,0-.31-.04-.44-.1-.39.2-.77.26-1.09.26Z"/>
          <path class="cls-6" d="M119.94,97.01h-1.52v-1.02h-.02c-.38.79-.88,1.18-1.51,1.18-1.15,0-1.72-.94-1.72-2.82v-4.04h1.52v3.86c0,.95.28,1.42.83,1.42.27,0,.49-.13.66-.39.16-.26.25-.61.25-1.06v-3.83h1.52v6.7Z"/>
          <path class="cls-6" d="M121.31,98.01c-.55,0-1-.45-1-1v-6.7c0-.3.13-.57.35-.76-.3-.38-.45-.85-.45-1.37s.17-1.03.48-1.4c.35-.42.85-.65,1.4-.65s1.06.23,1.41.66c.31.38.47.85.47,1.4s-.15,1.01-.46,1.39c.2.18.33.45.33.74v6.7c0,.55-.45,1-1,1h-1.52Z"/>
          <path class="cls-6" d="M122.08,89.26c-.26,0-.47-.1-.63-.31s-.25-.46-.25-.76.08-.56.25-.76.38-.29.63-.29.47.1.63.29.24.45.24.76-.08.57-.24.77-.37.3-.63.3ZM122.83,97.01h-1.52v-6.7h1.52v6.7Z"/>
          <path class="cls-6" d="M124.21,101.09c-.55,0-1-.45-1-1v-9.77c0-.55.45-1,1-1h1.52c.17,0,.32.04.46.11.44-.22.85-.27,1.15-.27.99,0,1.82.49,2.35,1.39.45.76.66,1.72.66,2.93,0,1.3-.25,2.37-.75,3.2-.74,1.24-1.76,1.5-2.48,1.5-.13,0-.26,0-.38-.03v1.94c0,.55-.45,1-1,1h-1.52ZM126.76,93.02c-.03.12-.05.27-.05.47v.54c0,.08,0,.15.01.22.04-.18.06-.42.06-.74,0-.2-.01-.36-.03-.48Z"/>
          <path class="cls-6" d="M125.75,96.23h-.02v3.86h-1.52v-9.77h1.52v1.01h.02c.38-.78.91-1.17,1.59-1.17.64,0,1.13.3,1.48.89s.52,1.4.52,2.43c0,1.12-.2,2.01-.61,2.69-.41.68-.95,1.01-1.62,1.01-.59,0-1.05-.31-1.36-.94ZM125.71,93.49v.54c0,.46.09.84.27,1.13s.42.44.71.44c.35,0,.62-.18.81-.55.19-.36.29-.88.29-1.55,0-1.18-.34-1.77-1.01-1.77-.31,0-.57.16-.76.48-.2.32-.3.74-.3,1.27Z"/>
          <path class="cls-6" d="M129.87,99.67c-.29,0-.57-.13-.76-.35-.19-.22-.27-.51-.23-.8l.49-3.31c.07-.49.49-.85.99-.85h1.4c.3,0,.59.14.78.37.19.23.26.54.2.84l-.71,3.31c-.1.46-.51.79-.98.79h-1.19Z"/>
          <path class="cls-6" d="M131.76,95.36l-.71,3.31h-1.19l.49-3.31h1.4Z"/>
          <path class="cls-6" d="M135.35,98.01c-.55,0-1-.45-1-1v-1.63c0-.4.24-.75.58-.91v-4.29c-.34-.16-.58-.51-.58-.91v-1.63c0-.55.45-1,1-1h2.72c.55,0,1,.45,1,1v1.63c0,.4-.24.75-.58.91v4.29c.34.16.58.51.58.91v1.63c0,.55-.45,1-1,1h-2.72Z"/>
          <path class="cls-6" d="M138.07,87.63v1.63h-.58v6.11h.58v1.63h-2.72v-1.63h.58v-6.11h-.58v-1.63h2.72Z"/>
          <path class="cls-6" d="M142.39,98.01c-.37,0-.69-.2-.86-.5-.17.3-.5.5-.86.5h-1.52c-.55,0-1-.45-1-1v-6.7c0-.55.45-1,1-1h1.52c.17,0,.32.04.46.11.43-.22.85-.27,1.15-.27.99,0,2.64.49,2.64,3.76v4.1c0,.55-.45,1-1,1h-1.52Z"/>
          <path class="cls-6" d="M143.91,97.01h-1.52v-3.72c0-1.04-.27-1.56-.82-1.56-.26,0-.48.14-.65.41-.17.27-.26.62-.26,1.05v3.82h-1.52v-6.7h1.52v1.06h.02c.36-.82.89-1.22,1.59-1.22,1.09,0,1.64.92,1.64,2.76v4.1Z"/>
          <path class="cls-6" d="M147.49,98.17c-1.07,0-1.98-.46-2.64-1.33-.6-.8-.91-1.81-.91-3.01,0-1.36.32-2.47.96-3.3.69-.9,1.66-1.38,2.81-1.38.83,0,1.44.17,1.89.53.24.19.37.48.37.78v1.75c0,.41-.25.77-.62.93-.12.05-.25.07-.38.07-.26,0-.52-.1-.71-.3-.18-.19-.3-.19-.35-.19-.13,0-.17.03-.24.11-.12.17-.19.46-.19.84s.06.65.18.81c.05.07.08.09.2.09.13,0,.28-.08.45-.23.19-.17.42-.25.66-.25.14,0,.28.03.41.09.36.16.59.52.59.91v1.66c0,.31-.14.6-.38.79-.52.41-1.23.62-2.11.62Z"/>
          <path class="cls-6" d="M148.98,96.77c-.34.27-.84.41-1.49.41-.76,0-1.37-.31-1.84-.93s-.7-1.43-.7-2.41c0-1.14.25-2.04.75-2.69.5-.66,1.18-.98,2.02-.98.58,0,1,.1,1.26.31v1.75c-.32-.32-.67-.48-1.07-.48-.44,0-.78.17-1.04.52-.26.35-.38.83-.38,1.44s.12,1.06.37,1.4.58.51,1.01.51c.38,0,.75-.16,1.11-.48v1.66Z"/>
          <path class="cls-6" d="M150.92,98.17c-.55,0-1.05-.24-1.41-.69-.31-.39-.47-.87-.47-1.4s.17-1.04.5-1.42c.36-.42.86-.65,1.4-.65s1.06.24,1.41.67c.32.39.48.86.48,1.4s-.17,1.04-.49,1.42c-.36.43-.86.66-1.43.66Z"/>
          <path class="cls-6" d="M150.92,97.17c-.25,0-.46-.1-.63-.31-.17-.21-.25-.47-.25-.77s.09-.57.26-.77.39-.3.64-.3.47.1.64.3c.17.2.25.46.25.77s-.08.58-.25.78c-.17.2-.39.3-.66.3Z"/>
        </g>
      </g>
      <g>
        <path class="cls-2" d="M19.72,93.78v3.23h-1.56v-9.38h2.44c1.74,0,2.61,1,2.61,2.99,0,.94-.25,1.7-.75,2.29s-1.17.87-2,.87h-.74ZM19.72,89.26v2.92h.61c.83,0,1.24-.49,1.24-1.48s-.41-1.44-1.24-1.44h-.61Z"/>
        <path class="cls-2" d="M26.43,97.17c-.82,0-1.47-.31-1.94-.94-.47-.63-.71-1.47-.71-2.55s.24-1.97.73-2.6c.49-.63,1.15-.94,1.98-.94s1.46.31,1.93.94c.47.62.7,1.45.7,2.48,0,1.11-.24,1.99-.72,2.64-.48.64-1.14.97-1.98.97ZM26.47,91.73c-.36,0-.64.17-.84.5-.2.33-.3.81-.3,1.42,0,1.29.38,1.93,1.15,1.93s1.1-.66,1.1-1.98c0-1.25-.37-1.88-1.1-1.88Z"/>
        <path class="cls-2" d="M37.28,90.31l-1.42,6.7h-1.6l-.73-3.92c-.05-.26-.08-.55-.08-.86h-.03c-.02.34-.05.62-.1.83l-.78,3.95h-1.58l-1.39-6.7h1.55l.68,4.37c.03.2.06.45.07.75h.03c.02-.31.04-.56.09-.77l.85-4.34h1.45l.76,4.37c.02.11.04.36.07.76h.03c.02-.25.04-.51.08-.76l.64-4.37h1.41Z"/>
        <path class="cls-2" d="M42.46,94.25h-3.22c.05.97.5,1.46,1.36,1.46.54,0,1.02-.17,1.43-.52v1.49c-.46.33-1.05.5-1.78.5-.8,0-1.42-.3-1.86-.9-.44-.6-.66-1.44-.66-2.51s.24-1.99.71-2.64c.48-.65,1.06-.97,1.76-.97s1.28.29,1.67.87c.39.58.59,1.37.59,2.36v.87ZM41.04,92.98c0-.96-.29-1.44-.86-1.44-.24,0-.46.14-.63.41-.18.27-.29.62-.33,1.03h1.82Z"/>
        <path class="cls-2" d="M46.76,92.18c-.18-.13-.4-.2-.64-.2-.33,0-.59.16-.78.49s-.28.78-.28,1.34v3.2h-1.52v-6.7h1.52v1.24h.02c.24-.91.68-1.36,1.3-1.36.16,0,.29.03.38.08v1.9Z"/>
        <path class="cls-2" d="M54.52,97.01h-4.12v-9.38h1.56v7.66h2.56v1.71Z"/>
        <path class="cls-2" d="M56.16,89.26c-.26,0-.47-.1-.63-.31s-.25-.46-.25-.76.08-.56.25-.76.38-.29.63-.29.47.1.63.29.24.45.24.76-.08.57-.24.77-.37.3-.63.3ZM56.91,97.01h-1.52v-6.7h1.52v6.7Z"/>
        <path class="cls-2" d="M63.06,97.01h-1.52v-3.72c0-1.04-.27-1.56-.82-1.56-.26,0-.48.14-.65.41-.17.27-.26.62-.26,1.05v3.82h-1.52v-6.7h1.52v1.06h.02c.36-.82.89-1.22,1.59-1.22,1.09,0,1.64.92,1.64,2.76v4.1Z"/>
        <path class="cls-2" d="M68.84,94.25h-3.22c.05.97.5,1.46,1.36,1.46.54,0,1.02-.17,1.43-.52v1.49c-.46.33-1.05.5-1.78.5-.8,0-1.42-.3-1.86-.9-.44-.6-.66-1.44-.66-2.51s.24-1.99.71-2.64c.48-.65,1.06-.97,1.76-.97s1.28.29,1.67.87c.39.58.59,1.37.59,2.36v.87ZM67.43,92.98c0-.96-.29-1.44-.86-1.44-.24,0-.46.14-.63.41-.18.27-.29.62-.33,1.03h1.82Z"/>
        <path class="cls-2" d="M78.49,97.01h-1.79l-1.08-2.41c-.08-.18-.16-.35-.23-.49-.07-.14-.15-.27-.22-.37-.08-.1-.15-.18-.24-.24s-.17-.08-.27-.08h-.42v3.59h-1.56v-9.38h2.47c1.68,0,2.52.85,2.52,2.55,0,.33-.04.63-.11.91-.07.28-.18.53-.31.75-.13.22-.3.41-.49.58-.19.16-.4.29-.64.38v.03c.1.04.2.11.3.21.1.1.19.21.28.34.09.13.18.27.26.42s.16.3.22.44l1.31,2.77ZM74.24,89.22v2.61h.67c.33,0,.6-.13.81-.39.21-.27.31-.59.31-.99,0-.82-.36-1.23-1.09-1.23h-.7Z"/>
        <path class="cls-2" d="M83.42,94.25h-3.22c.05.97.5,1.46,1.36,1.46.54,0,1.02-.17,1.43-.52v1.49c-.46.33-1.05.5-1.78.5-.8,0-1.42-.3-1.86-.9-.44-.6-.66-1.44-.66-2.51s.24-1.99.71-2.64c.48-.65,1.06-.97,1.76-.97s1.28.29,1.67.87c.39.58.59,1.37.59,2.36v.87ZM82.01,92.98c0-.96-.29-1.44-.86-1.44-.24,0-.46.14-.63.41-.18.27-.29.62-.33,1.03h1.82Z"/>
        <path class="cls-2" d="M89.27,97.01h-1.52v-3.72c0-1.04-.27-1.56-.82-1.56-.26,0-.48.14-.65.41-.17.27-.26.62-.26,1.05v3.82h-1.52v-6.7h1.52v1.06h.02c.36-.82.89-1.22,1.59-1.22,1.09,0,1.64.92,1.64,2.76v4.1Z"/>
        <path class="cls-2" d="M93.53,96.93c-.23.16-.56.24-1.02.24-1.07,0-1.61-.76-1.61-2.27v-3.07h-.8v-1.52h.8v-1.44l1.52-.59v2.03h1.11v1.52h-1.11v2.71c0,.7.2,1.05.61,1.05.16,0,.33-.06.5-.19v1.53Z"/>
        <path class="cls-2" d="M96.85,94.16h-2.64v-1.45h2.64v1.45Z"/>
        <path class="cls-2" d="M102.5,97.01h-4.15v-9.38h3.99v1.72h-2.43v2.09h2.26v1.71h-2.26v2.14h2.59v1.71Z"/>
        <path class="cls-2" d="M106.14,94.16h-2.64v-1.45h2.64v1.45Z"/>
        <path class="cls-2" d="M112.01,96.83c.17.24.33.44.48.6.15.16.3.28.46.37.15.09.31.15.47.19s.34.05.53.05c.05,0,.11,0,.17-.01.06,0,.12-.02.19-.03.06-.02.12-.03.18-.05.06-.02.11-.04.16-.07v1.78c-.1.04-.25.08-.43.12s-.4.06-.66.06c-.32,0-.61-.07-.87-.21-.27-.14-.52-.33-.76-.57-.24-.24-.48-.53-.71-.85-.23-.33-.47-.68-.72-1.05-.47-.02-.9-.15-1.29-.4-.39-.25-.72-.58-.99-1-.27-.42-.49-.91-.63-1.48s-.22-1.17-.22-1.82c0-1.49.31-2.68.95-3.6.63-.92,1.48-1.37,2.53-1.37.98,0,1.78.44,2.38,1.32.61.87.92,2.02.92,3.46,0,1.12-.19,2.08-.56,2.89-.37.8-.89,1.36-1.56,1.69ZM110.77,89.3c-.54,0-.98.28-1.3.84-.32.55-.48,1.29-.48,2.2s.16,1.66.48,2.2c.32.54.75.81,1.27.81s.97-.26,1.28-.78c.31-.53.47-1.26.47-2.19s-.15-1.71-.45-2.26c-.3-.55-.72-.82-1.26-.82Z"/>
        <path class="cls-2" d="M119.94,97.01h-1.52v-1.02h-.02c-.38.79-.88,1.18-1.51,1.18-1.15,0-1.72-.94-1.72-2.82v-4.04h1.52v3.86c0,.95.28,1.42.83,1.42.27,0,.49-.13.66-.39.16-.26.25-.61.25-1.06v-3.83h1.52v6.7Z"/>
        <path class="cls-2" d="M122.08,89.26c-.26,0-.47-.1-.63-.31s-.25-.46-.25-.76.08-.56.25-.76.38-.29.63-.29.47.1.63.29.24.45.24.76-.08.57-.24.77-.37.3-.63.3ZM122.83,97.01h-1.52v-6.7h1.52v6.7Z"/>
        <path class="cls-2" d="M125.75,96.23h-.02v3.86h-1.52v-9.77h1.52v1.01h.02c.38-.78.91-1.17,1.59-1.17.64,0,1.13.3,1.48.89s.52,1.4.52,2.43c0,1.12-.2,2.01-.61,2.69-.41.68-.95,1.01-1.62,1.01-.59,0-1.05-.31-1.36-.94ZM125.71,93.49v.54c0,.46.09.84.27,1.13s.42.44.71.44c.35,0,.62-.18.81-.55.19-.36.29-.88.29-1.55,0-1.18-.34-1.77-1.01-1.77-.31,0-.57.16-.76.48-.2.32-.3.74-.3,1.27Z"/>
        <path class="cls-2" d="M131.76,95.36l-.71,3.31h-1.19l.49-3.31h1.4Z"/>
        <path class="cls-2" d="M138.07,87.63v1.63h-.58v6.11h.58v1.63h-2.72v-1.63h.58v-6.11h-.58v-1.63h2.72Z"/>
        <path class="cls-2" d="M143.91,97.01h-1.52v-3.72c0-1.04-.27-1.56-.82-1.56-.26,0-.48.14-.65.41-.17.27-.26.62-.26,1.05v3.82h-1.52v-6.7h1.52v1.06h.02c.36-.82.89-1.22,1.59-1.22,1.09,0,1.64.92,1.64,2.76v4.1Z"/>
        <path class="cls-2" d="M148.98,96.77c-.34.27-.84.41-1.49.41-.76,0-1.37-.31-1.84-.93s-.7-1.43-.7-2.41c0-1.14.25-2.04.75-2.69.5-.66,1.18-.98,2.02-.98.58,0,1,.1,1.26.31v1.75c-.32-.32-.67-.48-1.07-.48-.44,0-.78.17-1.04.52-.26.35-.38.83-.38,1.44s.12,1.06.37,1.4.58.51,1.01.51c.38,0,.75-.16,1.11-.48v1.66Z"/>
        <path class="cls-2" d="M150.92,97.17c-.25,0-.46-.1-.63-.31-.17-.21-.25-.47-.25-.77s.09-.57.26-.77.39-.3.64-.3.47.1.64.3c.17.2.25.46.25.77s-.08.58-.25.78c-.17.2-.39.3-.66.3Z"/>
      </g>
    </g>
  </g>
</svg>